<?xml version="1.0" encoding="UTF-8" standalone="no"?>
<!-- Created with Inkscape (http://www.inkscape.org/) -->

<svg
   version="1.1"
   id="svg332"
   width="500"
   height="500"
   viewBox="0 0 500 500"
   sodipodi:docname="boat-blue-logo.svg"
   inkscape:export-filename="ferry-boat-white-blue-alt.png"
   inkscape:export-xdpi="96"
   inkscape:export-ydpi="96"
   inkscape:version="1.2.2 (732a01da63, 2022-12-09, custom)"
   xml:space="preserve"
   xmlns:inkscape="http://www.inkscape.org/namespaces/inkscape"
   xmlns:sodipodi="http://sodipodi.sourceforge.net/DTD/sodipodi-0.dtd"
   xmlns="http://www.w3.org/2000/svg"
   xmlns:svg="http://www.w3.org/2000/svg"><defs
     id="defs336" /><sodipodi:namedview
     id="namedview334"
     pagecolor="#ffffff"
     bordercolor="#000000"
     borderopacity="0.25"
     inkscape:showpageshadow="2"
     inkscape:pageopacity="0.0"
     inkscape:pagecheckerboard="0"
     inkscape:deskcolor="#d1d1d1"
     showgrid="false"
     inkscape:zoom="0.65738834"
     inkscape:cx="314.12179"
     inkscape:cy="335.41818"
     inkscape:window-width="1366"
     inkscape:window-height="704"
     inkscape:window-x="0"
     inkscape:window-y="0"
     inkscape:window-maximized="1"
     inkscape:current-layer="g338" /><g
     inkscape:groupmode="layer"
     inkscape:label="Image"
     id="g338"
     transform="translate(-24.232635,317.98413)"><circle
       style="fill:#ffffff;fill-opacity:1;stroke-width:4.26018"
       id="path2793"
       cx="281.01877"
       cy="-75.323654"
       r="233" /><path
       style="fill:#455fb7;fill-opacity:1;stroke-width:4.77428"
       d="m 125.29371,-23.093124 v -25.02298 l 18.13038,-6.78734 18.1304,-6.78734 0.4228,-37.218699 0.4228,-37.218707 7.1055,-1.87976 c 3.908,-1.03387 9.0594,-2.31425 11.4476,-2.8453 5.4374,-1.20906 5.4169,-2.30107 -0.4307,-23.01131 -2.5747,-9.11869 -4.6857,-17.84295 -4.6911,-19.38724 -0.01,-2.57635 1.7755,-2.77159 21.6503,-2.36849 l 21.6601,0.43931 5.7582,18.13728 5.7582,18.13729 6.1353,-0.52074 c 3.3744,-0.28642 6.3474,-0.72582 6.6066,-0.97646 0.2592,-0.25063 -1.3395,-6.89613 -3.5528,-14.76778 -6.3533,-22.59676 -7.7489,-20.9643 17.4816,-20.4489 l 21.5055,0.43931 4.3431,14.66411 c 2.3888,8.06527 4.613,14.90389 4.9427,15.19694 0.3297,0.29306 12.517,-0.52369 27.0829,-1.81498 l 26.4833,-2.34781 27.7938,15.96752 c 15.28661,8.78214 28.94881,15.96808 30.36051,15.96875 1.4116,6.8e-4 10.0273,-1.41434 19.146,-3.14447 23.533,-4.46502 54.4416,-8.97363 56.5959,-8.25555 2.9432,0.98106 2.1738,22.14426 -1.3093,36.01537 -5.1808,20.631756 -13.7835,35.675956 -29.7151,51.964656 -19.0876,19.51532 -28.4336,31.38261 -33.8778,43.0166503 l -4.6233,9.87966 h -47.91731 c -31.5823,0 -48.2646,-0.56185 -48.936,-1.64815003 -0.5602,-0.9065 -0.1598,-2.68286997 0.8897,-3.94747997 1.5881,-1.91357 9.3731,-2.29934 46.4016,-2.29934 h 44.49341 l 3.2749,-6.7107303 c 4.8873,-10.01447 15.8205,-23.79212 32.8914,-41.4486 17.2048,-17.79491 25.9082,-32.96769 30.0061,-52.309486 2.6479,-12.49808 3.0487,-24.27175 0.8263,-24.27175 -9.6907,0 -95.85061,16.63946 -135.05571,26.08235 -57.4046,13.826387 -132.0622,36.372616 -179.2159,54.122256 l -19.7374,7.42959 -0.4449,18.55319 -0.4448,18.5531803 h 21.0647 c 15.1786,0 21.8783,0.59491 23.9763,2.12897 6.341,4.63665997 1.2317,5.766 -26.086,5.766 h -26.74978 z m 53.18828,-44.5777 c 2.4448,-0.93716 19.7217,-6.55046 38.3934,-12.474 52.5654,-16.676289 90.0126,-26.857586 136.5831,-37.134806 34.51011,-7.61575 31.84601,-6.75961 29.09691,-9.3505 -1.2397,-1.16842 -5.67181,-3.99427 -9.84921,-6.27966 -8.554,-4.67987 -4.6221,-4.92461 -50.0381,3.11453 -12.5925,2.229 -27.0446,4.73815 -32.1159,5.57587 -25.6565,4.23823 -97.2377,21.28753 -113.9411,27.138657 l -6.3161,2.21244 -0.4539,14.450699 c -0.4955,15.77037 -0.2379,16.15032 8.6409,12.74677 z m 2.0608,-38.554866 c 20.3686,-7.18648 88.6541,-22.45519 141.3358,-31.60285 13.0267,-2.26196 25.3749,-4.63494 27.4406,-5.27328 3.5587,-1.09973 3.393,-1.35263 -3.158,-4.82066 l -6.9137,-3.66005 -45.7908,4.22193 c -50.9544,4.69802 -88.7565,9.78534 -118.8194,15.99047 l -5.1317,1.05921 v 13.22408 c 0,14.77306 -0.013,14.75999 11.0372,10.86115 z m 32.7799,-39.69673 c 8.7437,-1.0632 9.27,-1.7901 6.8177,-9.41679 -0.8096,-2.51783 -2.6058,-8.66351 -3.9916,-13.65708 l -2.5196,-9.07921 h -14.351 c -12.8826,0 -14.2791,0.28274 -13.6485,2.76323 0.3864,1.51979 2.4232,9.39955 4.5264,17.51058 l 3.8239,14.74735 5.5264,-0.93004 c 3.0396,-0.51152 9.2569,-1.38364 13.8163,-1.93804 z m 57.6801,-7.78296 c 10.2008,-1.18571 9.7674,0.39091 4.3127,-15.68565 l -2.6788,-7.89498 -13.6697,-0.45622 c -14.8585,-0.4959 -15.0732,-0.34572 -12.1679,8.51032 0.826,2.51782 2.2934,7.66807 3.261,11.44499 1.6884,6.59101 1.9613,6.83246 6.7879,6.00472 2.7658,-0.47433 9.1354,-1.33976 14.1548,-1.92318 z"
       id="path2675" /><path
       style="fill:#455fb7;fill-opacity:1;stroke-width:4.77428"
       d="m 215.71279,3.9548063 c 2.4002,-0.36294 5.9529,-0.35324 7.895,0.0216 1.9421,0.37479 -0.022,0.67174 -4.3639,0.65989 -4.3423,-0.0119 -5.9312,-0.3185 -3.5311,-0.68144 z"
       id="path2677" /><path
       style="fill:#455fb7;fill-opacity:1;stroke-width:4.77428"
       d="m 258.67599,0.28171627 c -1.9682,-3.18455997 2.7285,-6.24681997 9.581,-6.24681997 8.8167,0 11.7782,1.23351 11.7782,4.90592 0,2.62337 -1.2443,2.98905 -10.1703,2.98905 -5.5936,0 -10.6286,-0.74167 -11.1889,-1.64815003 z"
       id="path2679" /><path
       style="fill:#455fb7;fill-opacity:1;stroke-width:4.77428"
       d="m 208.04289,0.11133627 c -1.721,-2.78460997 4.0128,-6.07643997 10.5841,-6.07643997 7.9245,0 10.8804,1.33283 10.8804,4.90592 0,2.62337 -1.2443,2.98905 -10.1703,2.98905 -5.9701,0 -10.6345,-0.75103 -11.2942,-1.81853003 z"
       id="path2681" /><path
       style="fill:#455fb7;fill-opacity:1;stroke-width:1.68796"
       d="m 314.20839,-63.036104 c -2.9389,-1.00527 -3.3911,-5.64929 -0.7205,-7.39918 1.8598,-1.2186 3.2005,-1.08145 4.9093,0.50222 3.391,3.14269 0.1994,8.3979 -4.1888,6.89696 z"
       id="path2683" /><path
       style="fill:#455fb7;fill-opacity:1;stroke-width:1.68796"
       d="m 342.50639,-71.156784 c -1.6487,-1.77813 -1.8345,-3.87746 -0.4412,-4.98748 3.248,-2.58774 3.3257,-2.60719 5.3703,-1.34361 2.1629,1.3368 2.9272,3.3838 1.9489,5.22032 -1.6098,3.02232 -4.6502,3.51333 -6.878,1.11077 z"
       id="path2685" /><path
       style="fill:#455fb7;fill-opacity:1;stroke-width:1.68796"
       d="m 374.02549,-76.726114 c -1.5304,-0.56945 -2.9774,-2.52529 -2.9774,-4.02445 0,-1.87467 2.5693,-4.50796 4.3984,-4.50796 0.7536,0 1.3703,0.23428 1.3703,0.52064 0,0.28635 0.4896,0.67602 1.0879,0.86594 1.3598,0.43158 1.9102,2.08101 1.4727,4.41317 -0.2606,1.38936 -0.7545,1.94597 -2.1861,2.46363 -2.0112,0.72725 -1.9486,0.72193 -3.1658,0.26903 z"
       id="path2687" /><path
       style="fill:none;fill-opacity:1;stroke-width:3.02362"
       d="m 421.6139,-317.98414 126.11458,162.82471"
       id="path4234" /></g></svg>
