<?xml version="1.0" encoding="UTF-8" standalone="no"?>
<!-- Created with Inkscape (http://www.inkscape.org/) -->

<svg
   version="1.1"
   id="svg332"
   width="512"
   height="512"
   viewBox="0 0 512 512"
   sodipodi:docname="boat-logo-alt-transparence.svg"
   inkscape:export-filename="ferry-boat-white-transparence-alt.png"
   inkscape:export-xdpi="96"
   inkscape:export-ydpi="96"
   inkscape:version="1.2.2 (732a01da63, 2022-12-09, custom)"
   xmlns:inkscape="http://www.inkscape.org/namespaces/inkscape"
   xmlns:sodipodi="http://sodipodi.sourceforge.net/DTD/sodipodi-0.dtd"
   xmlns="http://www.w3.org/2000/svg"
   xmlns:svg="http://www.w3.org/2000/svg">
  <defs
     id="defs336" />
  <sodipodi:namedview
     id="namedview334"
     pagecolor="#ffffff"
     bordercolor="#000000"
     borderopacity="0.25"
     inkscape:showpageshadow="2"
     inkscape:pageopacity="0.0"
     inkscape:pagecheckerboard="0"
     inkscape:deskcolor="#d1d1d1"
     showgrid="false"
     inkscape:zoom="0.9296875"
     inkscape:cx="325.37815"
     inkscape:cy="284.5042"
     inkscape:window-width="1366"
     inkscape:window-height="704"
     inkscape:window-x="0"
     inkscape:window-y="0"
     inkscape:window-maximized="1"
     inkscape:current-layer="g338" />
  <g
     inkscape:groupmode="layer"
     inkscape:label="Image"
     id="g338">
    <path
       style="fill:#ffffff;stroke-width:3.2523"
       d=""
       id="path607" />
    <path
       style="fill:#ffffff;stroke-width:3.61098"
       d="M 230.50727,495.05797 C 126.50634,479.29514 46.833801,399.55345 31.725836,296.10399 29.306894,279.5405 29.30289,247.33428 31.717985,230.72642 45.924981,133.01991 120.54068,54.030606 216.77353,34.823817 257.41695,26.711949 296.58856,29.071781 336.11174,42.013156 403.04451,63.929489 457.7848,116.97771 482.424,183.8028 c 33.36752,90.4976 5.42537,195.82027 -68.38008,257.74575 -32.61346,27.36387 -68.87357,44.31736 -112.47812,52.58931 -13.70901,2.60066 -56.32914,3.15252 -71.05829,0.92011 z M 141.04928,346.74879 c 0.68106,-1.84219 0.42285,-3.21079 -0.84484,-4.47847 -1.51577,-1.51577 -5.86431,-1.82556 -25.62535,-1.82556 H 90.779233 V 321.0008 301.55685 l 20.307387,-7.51588 c 87.16372,-32.25983 188.98139,-60.16587 281.24241,-77.08249 25.90811,-4.75041 52.18227,-8.98433 56.18781,-9.05433 1.80438,-0.0316 -0.16273,18.84613 -3.08252,29.58196 -5.54349,20.38292 -12.97592,32.3001 -33.1729,53.18949 -16.92708,17.50738 -26.76621,29.99831 -32.272,40.96988 l -3.67493,7.32318 -47.52568,0.81364 c -26.13911,0.4475 -48.23171,1.04464 -49.09476,1.32697 -0.98145,0.32107 -1.42871,1.97002 -1.1942,4.40287 l 0.3748,3.88955 51.97306,0.31091 51.97308,0.31091 5.52522,-11.12276 c 6.48801,-13.06095 14.28422,-23.08854 34.84486,-44.81798 8.279,-8.74963 17.43395,-19.76665 20.3443,-24.48226 10.88717,-17.64031 20.98015,-61.27583 16.22735,-70.15655 -1.83875,-3.43572 -10.1531,-3.01888 -39.06051,1.95829 -50.58384,8.70932 -45.32892,8.21057 -51.56419,4.89404 -3.00901,-1.6005 -16.2034,-9.15351 -29.32084,-16.78447 l -23.84995,-13.87447 -8.39497,0.0152 c -4.61728,0.008 -17.75702,0.81249 -29.1994,1.78699 -11.44238,0.97451 -20.88615,1.63946 -20.98617,1.47766 -0.64966,-1.05118 -4.52306,-12.65156 -7.13263,-21.36142 -2.48308,-8.28758 -3.61432,-10.459 -5.74647,-11.03055 -5.23576,-1.40355 -42.10761,-0.82123 -43.61766,0.68884 -2.23334,2.23327 -1.73041,6.37547 2.71838,22.39172 2.27142,8.17734 4.01315,14.96863 3.8705,15.09174 -0.14266,0.12311 -3.08078,0.60374 -6.52921,1.06807 -5.19219,0.69911 -6.26981,0.53112 -6.26981,-0.97734 0,-1.00186 -2.7128,-10.19987 -6.02839,-20.44002 l -6.02832,-18.61845 -22.93241,0.32415 -22.93234,0.32415 -0.36648,4.4083 c -0.20538,2.47021 1.76355,12.49497 4.47847,22.80179 2.66468,10.11641 4.84495,18.96679 4.84495,19.66749 0,0.70071 -3.89633,1.92796 -8.65837,2.72724 -9.89795,1.66128 -14.19247,3.07787 -15.48277,5.10713 -0.49594,0.77997 -0.97351,17.27187 -1.06128,36.64869 -0.0878,19.37681 -0.49908,36.77291 -0.914,38.65801 -0.59236,2.69121 -1.90879,3.86932 -6.12858,5.48448 -2.95578,1.13136 -10.68202,4.09079 -17.169447,6.57652 -6.48744,2.48572 -12.80208,5.52621 -14.03255,6.75665 -2.03763,2.03768 -2.23712,4.36851 -2.23712,26.1385 0,17.04899 0.42796,24.5872 1.49277,26.29367 1.43538,2.30022 2.59072,2.38005 30.018877,2.07373 28.24708,-0.31545 28.5356,-0.34451 29.50668,-2.97147 z m 53.42736,-0.80029 c 0.22391,-1.96136 -0.29205,-3.88823 -1.19427,-4.46018 -0.87365,-0.55384 -5.91464,-1.01522 -11.20222,-1.02528 -9.76739,-0.0185 -12.47996,1.01576 -12.47996,4.75875 0,3.99541 2.65,4.86865 13.7153,4.51956 l 10.76696,-0.33966 z m 54.14565,1.10003 c 2.376,-5.21476 -0.1783,-6.60377 -12.14378,-6.60377 -11.96548,0 -14.5197,1.38901 -12.1437,6.60377 1.28527,2.82093 1.81772,2.95028 12.1437,2.95028 10.32606,0 10.85851,-0.12935 12.14378,-2.95028 z m 40.91538,-69.38755 c 1.03216,-1.03217 1.87668,-2.33732 1.87668,-2.90034 0,-0.56301 -0.84452,-1.86816 -1.87668,-2.90033 -4.26438,-4.26438 -10.31994,-0.6311 -7.87854,4.72708 1.53579,3.37072 5.09625,3.85589 7.87854,1.07359 z m 31.67855,-7.0145 c 0.78768,-0.9491 1.25654,-2.96441 1.04189,-4.47846 -0.71561,-5.04817 -9.34712,-3.81588 -9.34712,1.33446 0,4.39307 5.53088,6.48684 8.30523,3.144 z m 32.06066,-6.87299 c 1.98604,-1.98608 1.79048,-4.55229 -0.54344,-7.13122 -2.69985,-2.98329 -4.76895,-2.74111 -7.11025,0.83225 -1.85069,2.82449 -1.84072,3.16614 0.15757,5.37415 2.41792,2.67185 5.38321,3.03768 7.49612,0.92482 z"
       id="path907" />
    <path
       style="fill:#ffffff;stroke-width:3.61098"
       d="m 132.45222,223.33297 c 0,-7.22525 0.40307,-13.13903 0.89571,-13.14172 0.49265,-0.002 8.68821,-1.61417 18.21246,-3.58104 27.21029,-5.61929 110.52486,-15.44409 147.53395,-17.39783 14.64547,-0.77315 15.87955,-0.66324 20.81298,1.85359 6.51044,3.32138 5.69104,3.8494 -10.10796,6.51391 -63.19161,10.65727 -131.52306,25.56743 -167.62026,36.57536 -4.17448,1.273 -8.07073,2.31455 -8.65837,2.31455 -0.58764,0 -1.06851,-5.91156 -1.06851,-13.13682 z"
       id="path917" />
    <path
       style="fill:#ffffff;stroke-width:3.61098"
       d="m 130.5651,258.62501 0.33367,-14.98726 7.16559,-2.29495 c 36.29466,-11.62431 99.59022,-25.56944 175.24239,-38.60897 l 24.76615,-4.26873 9.86733,5.56177 c 5.42701,3.05897 10.03871,5.70783 10.24817,5.88636 0.20947,0.17854 -4.89598,1.50761 -11.34542,2.95349 -73.26966,16.4262 -133.56844,32.9088 -191.79562,52.42704 l -24.81592,8.31851 z"
       id="path919" />
    <path
       style="fill:#ffffff;stroke-width:3.61098"
       d="m 149.3301,176.61763 c -1.98479,-7.28974 -3.97013,-15.26939 -4.4119,-17.73254 l -0.80322,-4.47847 h 13.8285 13.82851 l 3.1004,10.44975 c 1.70529,5.74736 3.60348,12.00784 4.21829,13.91217 2.25572,6.98689 3.17757,6.44972 -16.39834,9.55566 l -9.75357,1.54752 z"
       id="path921" />
    <path
       style="fill:#ffffff;stroke-width:3.61098"
       d="m 217.87344,176.36753 c -1.03632,-3.73456 -2.65353,-9.16986 -3.59375,-12.07845 -2.82578,-8.74101 -3.24439,-8.44561 11.96831,-8.44561 h 13.67784 l 3.68365,11.49965 c 2.026,6.32482 3.49255,11.69079 3.25898,11.92437 -0.23356,0.2336 -4.68746,0.96987 -9.89747,1.63617 -5.20994,0.66631 -11.21431,1.44602 -13.34301,1.73271 -3.8014,0.51198 -3.90386,0.40038 -5.75455,-6.26884 z"
       id="path923" />
  </g>
</svg>
